<svg width="679" height="664" viewBox="0 0 679 664" fill="none" xmlns="http://www.w3.org/2000/svg">
<mask id="mask0_113_7" style="mask-type:alpha" maskUnits="userSpaceOnUse" x="0" y="0" width="679" height="664">
<rect width="679" height="664" fill="#FECACA"/>
</mask>
<g mask="url(#mask0_113_7)">
<path opacity="0.1" d="M1065.55 -54.8018C1044.71 -111.806 991.974 -155.013 924.791 -170.186C857.608 -185.36 790.955 -169.319 747.468 -126.881C699.693 -80.3204 679.287 -13.4435 659.516 51.2824C638.059 121.633 615.919 194.367 558.255 238.084C495.121 286.021 410.197 284.307 327.575 282.359C240.78 280.433 151.098 278.402 88.3002 335.216C28.703 389.189 16.6769 477.14 9.47995 562.582L-12.5389 824.305L-8.8235 824.627L12.8327 562.781C19.9788 478.178 31.636 391.317 90.587 338.012C152.225 282.005 241.135 284.023 327.157 285.937C410.189 287.775 496.043 289.679 560.169 240.925C618.711 196.587 641.351 122.839 662.791 52.2179C682.531 -12.0046 702.674 -78.4258 749.737 -124.355C792.298 -165.939 857.319 -181.706 923.637 -166.685C989.954 -151.664 1041.63 -109.328 1062.04 -53.5287L1065.55 -54.8018Z" fill="#16181C"/>
<path opacity="0.1" d="M203.264 -343.077C143.095 -335.113 89.4684 -293.021 60.069 -230.736C30.6695 -168.45 31.8548 -99.9048 63.8373 -48.2401C98.9134 8.50516 159.764 42.9455 218.652 76.2989C282.665 112.52 348.856 149.926 379.009 215.706C412.094 287.743 391.981 370.268 372.139 450.496C351.412 534.801 329.956 621.903 371.779 695.539C411.524 765.434 494.764 796.271 576.605 821.849L827.303 900.172L828.424 896.615L577.528 818.619C496.495 793.273 414.237 763.033 375.005 693.914C333.718 621.585 354.994 535.235 375.541 451.681C395.364 371.029 415.865 287.637 382.198 214.454C351.63 147.681 284.557 109.569 220.277 73.3058C161.873 40.0915 101.41 6.00687 66.7957 -49.9071C35.4457 -100.482 34.173 -167.375 63.2357 -228.849C92.2984 -290.322 144.845 -331.571 203.744 -339.375L203.264 -343.077Z" fill="#16181C"/>
</g>
</svg>
