<svg width="572" height="664" viewBox="0 0 572 664" fill="none" xmlns="http://www.w3.org/2000/svg">
<mask id="mask0_113_3" style="mask-type:alpha" maskUnits="userSpaceOnUse" x="0" y="0" width="572" height="664">
<rect width="572" height="664" fill="#C7D2FE"/>
</mask>
<g mask="url(#mask0_113_3)">
<path d="M420.051 591.466C467.434 563.251 474.912 521.768 475.281 482.632C476.314 373.03 514.242 359.472 554.918 278.309C603.262 181.615 533.828 127.714 462.932 121.234C433.669 118.823 402.476 117.912 380.068 95.9217C362.58 78.8078 354.986 49.0525 343.976 26.9847C303.723 -52.9569 197.096 -74.7739 120.784 44.2847C75.6578 114.757 83.3079 172.362 90.4254 252.083C97.1325 327.241 70.4009 384.011 32.9465 447.551C-56.4219 598.991 45.8603 794.273 287.859 610.328C325.655 581.638 381.941 614.315 420.051 591.466Z" fill="#FFBD2E"/>
</g>
</svg>
