<svg width="1440" height="200" viewBox="0 0 1440 200" fill="none" xmlns="http://www.w3.org/2000/svg">
<g opacity="0.01">
<path d="M139.969 144.386C139.969 154.325 137.484 163.527 132.515 171.994C127.546 180.276 120.184 186.994 110.429 192.147C100.675 197.116 88.8036 199.601 74.8158 199.601C61.0122 199.601 48.6809 197.3 37.822 192.699C26.9631 187.914 18.2208 181.104 11.5951 172.27C5.15337 163.435 1.47239 153.129 0.552147 141.349H41.9631C42.8834 149.264 46.0122 155.889 51.3496 161.227C56.8711 166.38 64.141 168.957 73.1594 168.957C81.2575 168.957 87.4232 166.84 91.6563 162.607C96.0735 158.19 98.2821 152.576 98.2821 145.767C98.2821 139.693 96.5336 134.724 93.0367 130.859C89.5397 126.81 85.1226 123.589 79.7852 121.196C74.4477 118.803 67.0858 116.043 57.6993 112.914C45.5521 108.865 35.6134 104.908 27.8834 101.043C20.1533 96.9937 13.5276 91.1962 8.00612 83.6502C2.66871 76.1042 0 66.2576 0 54.1103C0 37.3619 5.98159 24.2024 17.9448 14.6319C30.092 4.87729 46.1042 0 65.9815 0C86.595 0 102.975 4.96931 115.123 14.9079C127.454 24.8466 134.448 38.0981 136.104 54.6625H94.141C93.0367 47.6686 90.0919 41.9631 85.3066 37.546C80.5213 32.9447 73.9876 30.6441 65.7054 30.6441C58.5275 30.6441 52.73 32.5766 48.3128 36.4416C43.8956 40.1226 41.687 45.5521 41.687 52.73C41.687 58.4355 43.3435 63.2208 46.6564 67.0858C50.1533 70.7668 54.4784 73.8036 59.6318 76.1962C64.9692 78.5888 72.1471 81.2575 81.1655 84.2023C93.6808 88.6195 103.804 92.7606 111.534 96.6256C119.448 100.491 126.165 106.288 131.687 114.018C137.208 121.748 139.969 131.871 139.969 144.386Z" fill="white"/>
<path d="M332.908 2.76073V197.668H293.705V112.914H210.331V197.668H171.405V2.76073H210.331V81.7177H293.705V2.76073H332.908Z" fill="white"/>
<path d="M462.356 0C480.577 0 497.049 4.23312 511.773 12.6994C526.681 21.1656 538.368 33.0368 546.834 48.3128C555.484 63.4048 559.81 80.5213 559.81 99.6624C559.81 118.803 555.484 136.012 546.834 151.288C538.368 166.564 526.681 178.435 511.773 186.902C497.049 195.368 480.577 199.601 462.356 199.601C444.135 199.601 427.57 195.368 412.663 186.902C397.939 178.435 386.252 166.564 377.601 151.288C369.135 136.012 364.902 118.803 364.902 99.6624C364.902 80.5213 369.135 63.4048 377.601 48.3128C386.252 33.0368 397.939 21.1656 412.663 12.6994C427.57 4.23312 444.135 0 462.356 0ZM462.356 35.8895C450.945 35.8895 440.914 38.4662 432.264 43.6196C423.613 48.7729 416.804 56.2269 411.834 65.9815C407.049 75.552 404.656 86.779 404.656 99.6624C404.656 112.546 407.049 123.865 411.834 133.619C416.804 143.19 423.613 150.552 432.264 155.705C440.914 160.859 450.945 163.435 462.356 163.435C473.767 163.435 483.797 160.859 492.448 155.705C501.098 150.552 507.816 143.19 512.601 133.619C517.57 123.865 520.055 112.546 520.055 99.6624C520.055 86.779 517.57 75.552 512.601 65.9815C507.816 56.2269 501.098 48.7729 492.448 43.6196C483.797 38.4662 473.767 35.8895 462.356 35.8895Z" fill="white"/>
<path d="M630.771 125.337V197.668H591.845V2.76073H662.796C685.802 2.76073 703.102 8.28219 714.697 19.3251C726.477 30.368 732.366 45.368 732.366 64.3251C732.366 82.914 726.292 97.7299 714.145 108.773C702.182 119.816 685.066 125.337 662.796 125.337H630.771ZM658.655 94.1409C681.477 94.1409 692.888 84.2023 692.888 64.3251C692.888 54.5705 690.219 47.1165 684.881 41.9631C679.544 36.8098 670.802 34.2331 658.655 34.2331H630.771V94.1409H658.655Z" fill="white"/>
<path d="M925.503 197.668H886.577L799.338 65.1533V197.668H760.411V2.76073H799.338L886.577 136.38V2.76073H925.503V197.668Z" fill="white"/>
<path d="M1054.87 0C1073.09 0 1089.56 4.23312 1104.28 12.6994C1119.19 21.1656 1130.88 33.0368 1139.35 48.3128C1148 63.4048 1152.32 80.5213 1152.32 99.6624C1152.32 118.803 1148 136.012 1139.35 151.288C1130.88 166.564 1119.19 178.435 1104.28 186.902C1089.56 195.368 1073.09 199.601 1054.87 199.601C1036.65 199.601 1020.08 195.368 1005.17 186.902C990.45 178.435 978.763 166.564 970.113 151.288C961.646 136.012 957.413 118.803 957.413 99.6624C957.413 80.5213 961.646 63.4048 970.113 48.3128C978.763 33.0368 990.45 21.1656 1005.17 12.6994C1020.08 4.23312 1036.65 0 1054.87 0ZM1054.87 35.8895C1043.46 35.8895 1033.43 38.4662 1024.78 43.6196C1016.12 48.7729 1009.31 56.2269 1004.35 65.9815C999.56 75.552 997.168 86.779 997.168 99.6624C997.168 112.546 999.56 123.865 1004.35 133.619C1009.31 143.19 1016.12 150.552 1024.78 155.705C1033.43 160.859 1043.46 163.435 1054.87 163.435C1066.28 163.435 1076.31 160.859 1084.96 155.705C1093.61 150.552 1100.33 143.19 1105.11 133.619C1110.08 123.865 1112.57 112.546 1112.57 99.6624C1112.57 86.779 1110.08 75.552 1105.11 65.9815C1100.33 56.2269 1093.61 48.7729 1084.96 43.6196C1076.31 38.4662 1066.28 35.8895 1054.87 35.8895Z" fill="white"/>
<path d="M1440 2.76073L1392.24 197.668H1344.2L1307.76 56.3189L1271.04 197.668H1223.28L1175.52 2.76073H1217.76L1247.58 153.773L1286.23 2.76073H1329.02L1367.94 153.773L1397.76 2.76073H1440Z" fill="white"/>
</g>
</svg>
